<?xml version="1.0" encoding="UTF-8" standalone="no"?>
<!-- Created with Inkscape (http://www.inkscape.org/) -->

<svg
   version="1.1"
   id="svg1"
   width="163.46667"
   height="29.733334"
   viewBox="0 0 163.46667 29.733334"
   sodipodi:docname="latex_text.eps"
   xmlns:inkscape="http://www.inkscape.org/namespaces/inkscape"
   xmlns:sodipodi="http://sodipodi.sourceforge.net/DTD/sodipodi-0.dtd"
   xmlns="http://www.w3.org/2000/svg"
   xmlns:svg="http://www.w3.org/2000/svg">
  <defs
     id="defs1" />
  <sodipodi:namedview
     id="namedview1"
     pagecolor="#ffffff"
     bordercolor="#000000"
     borderopacity="0.25"
     inkscape:showpageshadow="2"
     inkscape:pageopacity="0.0"
     inkscape:pagecheckerboard="0"
     inkscape:deskcolor="#d1d1d1">
    <inkscape:page
       x="0"
       y="0"
       inkscape:label="1"
       id="page1"
       width="163.46667"
       height="29.733334"
       margin="0"
       bleed="0" />
  </sodipodi:namedview>
  <g
     id="g1"
     inkscape:groupmode="layer"
     inkscape:label="1">
    <path
       id="path1"
       d="M 30.7969,88 C 24.5391,88 19.5391,89.3477 15,92.0469 c -4.5312,3.0234 -8.05469,6.457 -10.5625,11.2501 -2.65625,5.035 -3.765625,10.348 -3.765625,16.641 -0.226562,6.32 1.253905,11.851 3.765625,16.656 2.36328,4.945 6.0313,8.578 10.5625,11.297 4.5391,2.765 9.8047,4.093 15.7969,4.093 4.9101,0.004 9.7851,-1 13.8281,-3 3.832,-1.984 7.2969,-4.734 9.7656,-8.234 2.336,-3.418 3.9141,-7.539 4.3438,-12.109 H 44.3281 c -0.6523,3.379 -1.9531,5.914 -4.2343,7.968 -2.3047,2.18 -5.3125,3.079 -9.125,3.079 -5.1485,0.101 -8.6016,-1.79 -11.3282,-5.36 -2.9336,-3.34 -4.0781,-8.359 -4.0781,-14.39 -0.1875,-5.961 1.3594,-10.747 4.0781,-14.297 2.5157,-3.434 6.5039,-5.328 11.3282,-5.328 3.5312,0.226 6.8476,1.003 8.9843,3.015 1.8282,2.242 3.5664,4.723 4.2657,8.11 H 58.7344 C 58.1328,107.125 56.9688,102.922 54.5,99.3906 51.8633,96.0703 48.7656,93.0859 44.7031,91.0469 40.4063,89.332 36.0039,88 30.7969,88"
       style="fill:#000000;fill-opacity:1;fill-rule:nonzero;stroke:none"
       transform="matrix(0.13333333,0,0,-0.13333333,0,29.733333)" />
    <path
       id="path2"
       d="m 69.5313,123.922 c -0.1797,6.785 0.582,13.68 1.75,20.766 1.0703,7.187 2.789,13.781 4.875,20.093 2.0312,6.383 4.4843,11.711 7.2031,16.203 h 14.1875 c -2.7891,-5.578 -4.8906,-11.601 -6.8594,-18.046 -2.1992,-6.43 -3.5,-13.012 -4.5937,-19.688 -1.1172,-6.43 -1.625,-13.121 -1.625,-19.328 -0.1563,-8.297 1.0859,-16.617 3.2656,-24.8751 C 89.6641,91.1016 93.1797,81.7734 97.5469,72 H 83.3594 c -9.3399,15.7109 -13.8281,33.016 -13.8281,51.922"
       style="fill:#000000;fill-opacity:1;fill-rule:nonzero;stroke:none"
       transform="matrix(0.13333333,0,0,-0.13333333,0,29.733333)" />
    <path
       id="path3"
       d="m 135.422,88 c -6.516,0 -11.902,1.6953 -16.578,5.0938 -4.949,3.6953 -8.278,8.2072 -10.828,14.4372 -2.547,6.383 -3.813,13.61 -3.813,22.141 v 5.656 c -0.07,8.742 1.27,15.895 3.813,22.125 2.547,6.41 6.16,11.039 10.828,14.438 4.394,3.429 10.203,5.093 16.578,5.093 6.242,0.004 11.906,-1.699 16.562,-5.093 4.336,-3.36 8.274,-8.211 10.829,-14.438 2.281,-6.047 3.828,-13.605 3.828,-22.125 v -5.656 c -0.215,-8.422 -1.278,-15.914 -3.828,-22.141 -2.825,-6.074 -6.165,-11.0427 -10.829,-14.4372 C 147,90 141.805,88 135.422,88 Z m 0,12.313 c 4.879,0.226 8.992,2.257 11.922,6.781 2.82,4.82 4.445,11.051 4.531,19.594 h -32.906 c -0.25,-8.438 1.566,-15.075 4.484,-19.594 2.774,-4.219 6.914,-6.781 11.969,-6.781 z M 118.969,139 h 32.906 c -0.375,8.313 -1.594,14.664 -4.531,19.063 -3.043,4.718 -6.903,6.609 -11.922,6.609 -5.195,0.109 -9.043,-2.203 -11.969,-6.609 -3.07,-4.086 -4.414,-10.75 -4.484,-19.063"
       style="fill:#000000;fill-opacity:1;fill-rule:nonzero;stroke:none"
       transform="matrix(0.13333333,0,0,-0.13333333,0,29.733333)" />
    <path
       id="path4"
       d="m 173.75,72 c 4.145,9.7734 7.68,18.7852 9.859,27.0469 1.973,8.5781 3.266,16.5511 3.266,24.8751 -0.293,6.234 -0.559,12.648 -1.672,19.328 -1.172,6.926 -2.64,13.238 -4.609,19.688 -2.156,6.468 -4.242,12.46 -6.844,18.046 h 14.234 c 2.391,-4.484 5.11,-9.89 7.172,-16.203 2.008,-6.242 3.676,-13.011 4.844,-20.093 1.176,-6.981 1.766,-14.008 1.766,-20.766 C 201.508,105.039 197.172,87.7109 187.984,72 H 173.75"
       style="fill:#000000;fill-opacity:1;fill-rule:nonzero;stroke:none"
       transform="matrix(0.13333333,0,0,-0.13333333,0,29.733333)" />
    <path
       id="path5"
       d="m 251.734,132 v 8 h 72.172 v -8 z m 0,-26 v 8 h 72.172 v -8 z"
       style="fill:#000000;fill-opacity:1;fill-rule:nonzero;stroke:none"
       transform="matrix(0.13333333,0,0,-0.13333333,0,29.733333)" />
    <path
       id="path6"
       d="m 482.313,158 c -4.711,0 -8.653,0.758 -12.141,2.266 -3.547,1.754 -6.215,3.613 -8.172,6.312 -1.961,2.836 -2.937,5.805 -2.937,9.328 -0.024,4.27 1.359,7.817 4.078,10.735 2.679,3.047 6.238,4.672 10.531,5.234 -3.945,0.707 -6.727,2.289 -9.016,4.875 -2.5,2.664 -3.422,5.816 -3.422,9.703 -0.078,3.598 0.899,6.438 2.704,9.063 1.488,2.785 4.285,4.691 7.453,6.203 3.035,1.601 6.804,2.265 10.922,2.265 4.007,0.004 7.75,-0.75 10.906,-2.25 3.094,-1.402 5.644,-3.546 7.437,-6.171 1.571,-2.481 2.688,-5.665 2.688,-9.11 -0.117,-3.703 -1.149,-7.121 -3.438,-9.703 -2.586,-2.5 -5.265,-4.211 -8.953,-4.875 2.516,-0.355 5.348,-1.324 7.547,-2.781 2.039,-1.149 3.93,-3.309 5.172,-5.578 1.023,-2.11 1.875,-4.809 1.875,-7.61 -0.184,-3.492 -0.984,-6.633 -2.953,-9.328 -2.168,-2.558 -4.703,-4.805 -8.203,-6.312 C 490.77,159 486.875,158 482.313,158 Z m 0,8.984 c 3.468,0.004 6.457,0.895 8.656,2.688 1.875,1.91 3.297,4.172 3.297,7.109 -0.09,3.032 -1.133,5.399 -3.391,7.328 -2.543,2.235 -5.105,2.907 -8.562,2.907 -3.594,0.328 -6.368,-0.969 -8.625,-2.907 -2.493,-1.632 -3.391,-4.371 -3.391,-7.328 -0.102,-2.867 1.098,-5.308 3.297,-7.109 2.008,-1.684 5.113,-2.688 8.719,-2.688 z m 0,29.016 c 2.925,0 5.488,0.867 7.375,2.609 1.664,1.868 2.843,4.039 2.843,6.907 -0.179,3.004 -0.937,5.132 -2.812,6.875 -2.117,1.941 -4.344,2.609 -7.406,2.609 -3.2,0 -5.579,-0.871 -7.454,-2.609 -2.164,-1.539 -2.812,-4.032 -2.812,-6.875 -0.016,-2.684 0.941,-5.141 2.828,-6.891 C 476.477,197 479.25,196 482.313,196"
       style="fill:#000000;fill-opacity:1;fill-rule:nonzero;stroke:none"
       transform="matrix(0.13333333,0,0,-0.13333333,0,29.733333)" />
    <path
       id="path7"
       d="m 557.156,158 c -4.687,0 -8.027,0.953 -10.172,2.859 -2.464,1.954 -3.203,4.879 -3.203,8.922 v 25.235 H 528.625 V 158 h -10.641 v 37.016 h -7.031 V 204 h 51.141 v -8.984 h -7.719 v -23.891 c -0.125,-1.199 0.328,-2.555 0.984,-3.187 0.536,-0.618 1.766,-0.954 3.329,-0.954 h 2.296 V 158 h -3.828"
       style="fill:#000000;fill-opacity:1;fill-rule:nonzero;stroke:none"
       transform="matrix(0.13333333,0,0,-0.13333333,0,29.733333)" />
    <path
       id="path8"
       d="m 568.766,159 v 45 h 10.343 v -7.5 h 0.125 c 0.743,2.602 2.118,4.297 3.891,5.578 1.738,1.586 4.117,1.922 7.016,1.922 0.691,0 1.394,-0.023 1.968,-0.062 0.547,-0.024 1.086,-0.075 1.516,-0.094 v -9.172 c -0.605,0.172 -1.078,0.133 -2.047,0.219 -1.152,0.117 -1.965,0.125 -3.015,0.125 -2.743,0.328 -4.704,-0.883 -6.454,-2.641 -1.777,-1.555 -2.609,-4.402 -2.609,-7.922 V 159 h -10.734"
       style="fill:#000000;fill-opacity:1;fill-rule:nonzero;stroke:none"
       transform="matrix(0.13333333,0,0,-0.13333333,0,29.733333)" />
    <path
       id="path9"
       d="M 377.309,122.809 H 673.75"
       style="fill:none;stroke:#000000;stroke-width:7.763;stroke-linecap:butt;stroke-linejoin:miter;stroke-miterlimit:10;stroke-dasharray:none;stroke-opacity:1"
       transform="matrix(0.13333333,0,0,-0.13333333,0,29.733333)" />
    <path
       id="path10"
       d="m 382.281,29 v 63 h 24.516 c 6.43,0 11.883,-1.4687 15.562,-4.4062 3.555,-2.793 5.516,-6.8125 5.516,-11.6563 -0.293,-3.5547 -0.992,-6.4961 -2.969,-8.7656 -2.273,-1.9844 -4.656,-3.8516 -8.062,-4.7656 v -0.0938 c 3.5,-0.2305 6.969,-1.9844 9.562,-4.5781 2.457,-2.5078 3.891,-6.168 3.891,-10.7188 -0.102,-5.0586 -1.899,-9.7343 -5.688,-13.0468 C 420.625,30.6641 415.258,29 407.906,29 Z m 11.063,8.9844 h 13.375 c 3.594,0.0039 6.797,0.7969 8.89,2.3906 1.899,1.8008 3.157,3.8828 3.157,6.875 -0.258,3.2695 -1.032,5.3984 -3.094,7.1406 C 413.395,56.332 410.719,57 406.969,57 h -13.625 z m 0,28 h 12.953 c 3.129,0.0039 5.758,0.7695 7.594,2.3125 1.535,1.7734 2.75,3.6094 2.75,6.2031 -0.215,2.7891 -0.918,4.6953 -2.75,6.2188 -2.133,1.625 -4.368,2.2968 -7.594,2.2968 H 393.344 V 65.9844"
       style="fill:#000000;fill-opacity:1;fill-rule:nonzero;stroke:none"
       transform="matrix(0.13333333,0,0,-0.13333333,0,29.733333)" />
    <path
       id="path11"
       d="m 465.953,28 c -6.164,0 -11.012,1.3359 -15.5,4.0156 -4.633,3.0039 -8,6.4532 -10.562,11.3282 -2.852,5.0937 -3.828,10.5781 -3.828,17.1093 -0.024,6.7735 1.273,12.3282 3.828,17.2032 2.265,4.9882 6.082,8.6484 10.562,11.3281 4.336,2.6797 9.656,4.0156 15.5,4.0156 4.453,0 9.082,-0.9336 12.938,-2.7969 3.566,-1.5898 7.05,-4.4765 9.562,-7.8593 2.36,-3.1563 4.117,-7.3594 4.828,-11.9532 h -11.453 c -1.133,4.211 -2.687,7.1133 -5.5,9.3125 C 473.414,82 470.094,83 466.031,83 c -3.867,0 -7.183,-0.9336 -9.984,-2.7969 -2.809,-1.5898 -4.934,-4.4765 -6.422,-7.8593 -1.699,-3.168 -2.234,-7.3516 -2.234,-11.8907 -0.133,-4.3281 0.742,-8.4531 2.234,-11.8281 1.281,-3.2422 3.625,-5.9805 6.406,-7.8437 C 458.801,39 462.145,38 466.031,38 c 4.02,0 7.453,1.082 10.266,3.25 2.711,2.4258 4.672,5.2695 5.578,9.2813 h 11.406 c -0.804,-4.4375 -2.32,-8.5782 -4.828,-11.9532 -2.664,-3.2265 -5.699,-5.9687 -9.562,-7.8125 C 474.738,29 470.723,28 465.953,28"
       style="fill:#000000;fill-opacity:1;fill-rule:nonzero;stroke:none"
       transform="matrix(0.13333333,0,0,-0.13333333,0,29.733333)" />
    <path
       id="path12"
       d="m 501.344,10 v 52 h 9.25 V 18 h 24.187 v -8 h -33.437"
       style="fill:#000000;fill-opacity:1;fill-rule:nonzero;stroke:none"
       transform="matrix(0.13333333,0,0,-0.13333333,0,29.733333)" />
    <path
       id="path13"
       d="m 546.938,18 c 0,-1.6562 0.468,-3.2891 0.468,-4.8906 C 547.27,11.75 547.125,9.94531 546.563,8.57813 545.82,7.34375 545.125,5.83984 543.906,4.48438 542.395,3.29297 541.031,1.625 538.906,0 L 537,2.15625 c 1.164,1.41797 2.008,2.16406 2.531,3.07813 0.344,1.16406 0.895,1.9375 1.125,3.09375 0.008,1.38281 0.344,2.60937 0.344,4.35937 0,1.8945 0,3.5625 0,5.3125 h 5.938"
       style="fill:#000000;fill-opacity:1;fill-rule:nonzero;stroke:none"
       transform="matrix(0.13333333,0,0,-0.13333333,0,29.733333)" />
    <path
       id="path14"
       d="m 569.203,9 c -3.289,0 -6.031,0.82031 -8.437,2.4531 -2.664,1.8164 -4.274,3.9102 -5.594,6.8282 -1.371,3.164 -1.969,6.3437 -1.969,10.25 -0.07,4 0.664,7.2226 2,10.1406 1.266,3.0351 3.195,5.2109 5.594,6.8594 2.141,1.8007 5.187,2.4687 8.344,2.4687 2.359,0 4.562,-0.5 6.468,-1.5 1.711,-0.8242 3.473,-2.5117 4.672,-4.5625 h 0.063 V 62 h 8.828 V 10 h -8.688 v 5.3906 h -0.062 c -1.309,-1.9531 -2.731,-3.7617 -4.688,-4.8125 C 573.539,9.66797 571.609,9 569.203,9 Z m 2.078,7.4219 c 2.801,0.1914 5.211,1.0976 6.953,3.2969 1.661,2.289 2.61,5.125 2.61,8.7812 -0.281,3.8203 -0.871,6.582 -2.61,8.7813 -1.82,2.4375 -4.058,3.2968 -6.953,3.2968 -2.836,0.1407 -4.949,-1.0468 -6.625,-3.1406 -1.898,-1.8984 -2.515,-5.0625 -2.515,-8.9375 -0.047,-3.7305 0.836,-6.8867 2.515,-8.9687 1.457,-1.918 3.883,-3.1094 6.625,-3.1094"
       style="fill:#000000;fill-opacity:1;fill-rule:nonzero;stroke:none"
       transform="matrix(0.13333333,0,0,-0.13333333,0,29.733333)" />
    <path
       id="path15"
       d="m 613.234,9 c -3.765,0 -6.886,0.83594 -9.593,2.5 -2.922,1.8438 -4.793,3.9766 -6.25,6.9063 -1.59,3.1328 -2.188,6.289 -2.188,10.0625 -0.07,3.9687 0.75,7.1484 2.25,10.0781 1.36,3.0859 3.594,5.2422 6.25,6.9219 2.43,1.8632 5.727,2.5312 9.188,2.5312 3.254,0 6.656,-0.8359 9.312,-2.5 2.598,-1.4922 4.735,-3.9531 6.203,-6.8906 1.332,-2.7969 2.203,-6.3125 2.203,-10.1563 V 26 h -26.75 c -0.171,-2.875 1,-5.1953 2.657,-6.9531 1.484,-1.4336 3.968,-2.625 6.937,-2.625 2.067,0.1914 4.051,0.4609 5.5,1.3906 1.129,0.9883 2.426,2.1484 2.938,3.6719 h 8.265 c -0.523,-2.2774 -1.492,-4.6172 -3.062,-6.5 -1.606,-1.8711 -3.555,-3.3438 -5.938,-4.4063 C 618.719,9.66797 616.129,9 613.234,9 Z m -9.312,23 h 18.219 c -0.328,2.6445 -1.235,4.7344 -2.86,6.2656 -1.718,1.7852 -3.711,2.3125 -6.25,2.3125 -2.586,0.1407 -4.664,-0.7734 -6.265,-2.3125 -1.852,-1.289 -2.543,-3.6211 -2.844,-6.2656"
       style="fill:#000000;fill-opacity:1;fill-rule:nonzero;stroke:none"
       transform="matrix(0.13333333,0,0,-0.13333333,0,29.733333)" />
    <path
       id="path16"
       d="m 651.422,9 c -4.652,0 -8.277,1.082 -11.297,3.25 -3.062,2.4141 -4.672,5.2813 -4.953,9.3438 h 8.719 c -0.11,-1.6368 0.91,-3.1485 2.172,-4.125 1.238,-0.8047 3,-1.4688 5.218,-1.4688 2.032,0 3.797,0.4141 5.016,1.25 1.129,1.0938 1.844,1.9141 1.844,3.2188 -0.047,1.3007 -0.461,2.0234 -1.375,2.7031 -1.164,0.9531 -2.133,1.1758 -3.672,1.5 l -6.297,1.2969 c -7.453,1.5 -10.781,5.0468 -10.781,10.6718 -0.008,3.5157 1.351,6.1328 4.062,8.2188 C 642.758,47 646.391,48 650.891,48 c 4.191,0 8.14,-1.1328 10.953,-3.3906 2.531,-2.1211 4.265,-5.3242 4.359,-9.2188 h -8.297 c -0.355,1.8282 -0.699,2.961 -1.937,4.0157 -1.563,1.2578 -2.86,1.5937 -4.86,1.5937 -1.976,0 -3.468,-0.4336 -4.593,-1.2969 -1.289,-0.7656 -1.672,-1.9218 -1.672,-3.1718 -0.281,-0.9493 0.426,-2 1.281,-2.6875 0.82,-0.6368 2.066,-1.2032 3.609,-1.5469 l 6.657,-1.375 c 3.535,-0.7344 6.367,-1.9688 8.109,-3.625 1.57,-1.4219 2.609,-3.8399 2.609,-6.5469 -0.039,-2.3125 -0.671,-4.4766 -2.015,-6.2344 -1.375,-1.6015 -3.199,-3.1211 -5.563,-4.0781 C 657,9.66797 654.473,9 651.422,9"
       style="fill:#000000;fill-opacity:1;fill-rule:nonzero;stroke:none"
       transform="matrix(0.13333333,0,0,-0.13333333,0,29.733333)" />
    <path
       id="path17"
       d="m 693.531,123.922 c -0.179,6.785 0.582,13.68 1.75,20.766 1.071,7.187 2.789,13.781 4.875,20.093 2.032,6.383 4.485,11.711 7.203,16.203 h 14.188 c -2.789,-5.578 -4.891,-11.601 -6.859,-18.046 -2.2,-6.43 -3.5,-13.012 -4.594,-19.688 -1.117,-6.43 -1.625,-13.121 -1.625,-19.328 -0.156,-8.297 1.086,-16.617 3.265,-24.8751 1.93,-7.9453 5.446,-17.2735 9.813,-27.0469 h -14.188 c -9.339,15.7109 -13.828,33.016 -13.828,51.922"
       style="fill:#000000;fill-opacity:1;fill-rule:nonzero;stroke:none"
       transform="matrix(0.13333333,0,0,-0.13333333,0,29.733333)" />
    <path
       id="path18"
       d="M 762.281,175.984 V 89 h -14.875 v 72.328 h -0.125 l -20.828,-13.469 v 14.11 l 21.594,14.015 h 14.234"
       style="fill:#000000;fill-opacity:1;fill-rule:nonzero;stroke:none"
       transform="matrix(0.13333333,0,0,-0.13333333,0,29.733333)" />
    <path
       id="path19"
       d="m 804.734,119 h 72.1719 v 8 H 804.734 Z"
       style="fill:#000000;fill-opacity:1;fill-rule:nonzero;stroke:none"
       transform="matrix(0.13333333,0,0,-0.13333333,0,29.733333)" />
    <path
       id="path20"
       d="m 945.797,88 c -6.258,0 -11.258,1.3477 -15.797,4.0469 -4.531,3.0234 -8.055,6.457 -10.562,11.2501 -2.657,5.035 -3.766,10.348 -3.766,16.641 -0.227,6.32 1.254,11.851 3.766,16.656 2.363,4.945 6.031,8.578 10.562,11.297 4.539,2.765 9.805,4.093 15.797,4.093 4.91,0.004 9.785,-1 13.828,-3 3.832,-1.984 7.297,-4.734 9.766,-8.234 2.336,-3.418 3.914,-7.539 4.343,-12.109 h -14.406 c -0.652,3.379 -1.953,5.914 -4.234,7.968 -2.305,2.18 -5.313,3.079 -9.125,3.079 -5.149,0.101 -8.602,-1.79 -11.328,-5.36 -2.934,-3.34 -4.078,-8.359 -4.078,-14.39 -0.188,-5.961 1.359,-10.747 4.078,-14.297 2.515,-3.434 6.504,-5.328 11.328,-5.328 3.531,0.226 6.847,1.003 8.984,3.015 1.828,2.242 3.567,4.723 4.266,8.11 h 14.515 c -0.601,-4.313 -1.765,-8.516 -4.234,-12.0474 -2.637,-3.3203 -5.734,-6.3047 -9.797,-8.3437 C 955.406,89.332 951.004,88 945.797,88"
       style="fill:#000000;fill-opacity:1;fill-rule:nonzero;stroke:none"
       transform="matrix(0.13333333,0,0,-0.13333333,0,29.733333)" />
    <path
       id="path21"
       d="m 1011.08,88 c -6.09,0 -11.369,1.3438 -15.92,4.0313 -4.609,3.0078 -8.109,6.4257 -10.66,11.2187 -2.719,5.039 -3.828,10.352 -3.828,16.688 -0.227,6.363 1.273,11.914 3.828,16.718 2.379,4.926 6.102,8.567 10.66,11.266 4.5,2.734 9.86,4.062 15.92,4.062 6,0.004 11.33,-1.355 15.89,-4.062 4.25,-2.672 8.13,-6.453 10.69,-11.266 2.33,-4.687 3.82,-10.375 3.82,-16.718 -0.16,-6.313 -1.27,-11.899 -3.82,-16.688 -2.78,-4.543 -6.12,-8.5312 -10.69,-11.2187 C 1022.08,89.6641 1017.11,88 1011.08,88 Z m 0,12.313 c 4.68,0.226 8.46,1.75 11.26,5.25 2.69,3.644 4.21,8.289 4.21,14.375 -0.19,6.101 -1.41,10.894 -4.21,14.437 -2.91,3.75 -6.55,5.313 -11.26,5.313 -4.77,0.101 -8.51,-1.762 -11.31,-5.282 -3.059,-3.324 -4.211,-8.343 -4.211,-14.468 -0.18,-6.063 1.402,-10.875 4.211,-14.375 2.54,-3.356 6.57,-5.25 11.31,-5.25"
       style="fill:#000000;fill-opacity:1;fill-rule:nonzero;stroke:none"
       transform="matrix(0.13333333,0,0,-0.13333333,0,29.733333)" />
    <path
       id="path22"
       d="m 1075.7,88 c -7.74,0 -13.79,1.75 -18.82,5.25 -5.34,3.7578 -7.8,8.555 -8.25,15.141 h 14.53 c 0.25,-2.778 1.51,-5.293 3.61,-6.938 1.84,-1.453 5,-2.453 8.7,-2.453 3.38,0 6.33,0.6914 8.37,2.078 1.76,1.703 3.07,3.176 3.07,5.344 -0.31,2.035 -0.77,3.32 -2.28,4.437 -1.72,1.172 -3.56,1.957 -6.13,2.5 l -10.5,2.157 c -11.99,2.629 -17.98,8.351 -17.98,17.656 -0.01,5.898 2.25,10.164 6.76,13.625 4.26,3.523 10.54,5.187 18.05,5.187 7.19,0.004 13.54,-1.828 18.22,-5.484 4.67,-3.48 7.11,-8.617 7.26,-14.906 h -13.81 c -0.25,2.863 -1.16,4.972 -3.22,6.734 -2.15,1.992 -4.76,2.656 -8.11,2.656 -3.29,0.004 -5.78,-0.714 -7.64,-2.14 -2.04,-1.367 -2.8,-3.172 -2.8,-5.266 -0.24,-1.672 0.72,-3.289 2.16,-4.422 1.14,-0.855 3.44,-1.996 6,-2.578 l 11.09,-2.265 c 5.79,-1.043 10.62,-3.278 13.5,-6.016 2.74,-2.508 4.35,-6.352 4.35,-10.828 -0.28,-3.805 -1.12,-7.43 -3.35,-10.344 -2.39,-2.625 -5.31,-5.168 -9.25,-6.75 C 1085.23,89 1080.8,88 1075.7,88"
       style="fill:#000000;fill-opacity:1;fill-rule:nonzero;stroke:none"
       transform="matrix(0.13333333,0,0,-0.13333333,0,29.733333)" />
    <path
       id="path23"
       d="m 1160.42,88 c -6.51,0 -11.9,1.6953 -16.58,5.0938 -4.95,3.6953 -8.27,8.2072 -10.82,14.4372 -2.55,6.383 -3.82,13.61 -3.82,22.141 v 5.656 c -0.07,8.742 1.27,15.895 3.82,22.125 2.54,6.41 6.16,11.039 10.82,14.438 4.4,3.429 10.21,5.093 16.58,5.093 6.24,0.004 11.91,-1.699 16.56,-5.093 4.34,-3.36 8.28,-8.211 10.83,-14.438 2.28,-6.047 3.83,-13.605 3.83,-22.125 v -5.656 c -0.21,-8.422 -1.28,-15.914 -3.83,-22.141 -2.82,-6.074 -6.16,-11.0427 -10.83,-14.4372 C 1172,90 1166.8,88 1160.42,88 Z m 0,12.313 c 4.88,0.226 8.99,2.257 11.92,6.781 2.82,4.82 4.45,11.051 4.54,19.594 h -32.91 c -0.25,-8.438 1.57,-15.075 4.48,-19.594 2.78,-4.219 6.92,-6.781 11.97,-6.781 z M 1143.97,139 h 32.91 c -0.38,8.313 -1.6,14.664 -4.54,19.063 -3.04,4.718 -6.9,6.609 -11.92,6.609 -5.19,0.109 -9.04,-2.203 -11.97,-6.609 -3.07,-4.086 -4.41,-10.75 -4.48,-19.063"
       style="fill:#000000;fill-opacity:1;fill-rule:nonzero;stroke:none"
       transform="matrix(0.13333333,0,0,-0.13333333,0,29.733333)" />
    <path
       id="path24"
       d="m 1198.75,72 c 4.14,9.7734 7.68,18.7852 9.86,27.0469 1.97,8.5781 3.27,16.5511 3.27,24.8751 -0.3,6.234 -0.56,12.648 -1.68,19.328 -1.17,6.926 -2.64,13.238 -4.61,19.688 -2.15,6.468 -4.24,12.46 -6.84,18.046 h 14.23 c 2.4,-4.484 5.11,-9.89 7.18,-16.203 2,-6.242 3.67,-13.011 4.84,-20.093 1.18,-6.981 1.77,-14.008 1.77,-20.766 -0.26,-18.883 -4.6,-36.2111 -13.79,-51.922 h -14.23"
       style="fill:#000000;fill-opacity:1;fill-rule:nonzero;stroke:none"
       transform="matrix(0.13333333,0,0,-0.13333333,0,29.733333)" />
  </g>
</svg>
