<?xml version="1.0" encoding="UTF-8" standalone="no"?>
<!-- Created with Inkscape (http://www.inkscape.org/) -->

<svg
   version="1.1"
   id="svg1"
   width="129.73334"
   height="29.466667"
   viewBox="0 0 129.73334 29.466667"
   sodipodi:docname="latex_text.eps"
   xmlns:inkscape="http://www.inkscape.org/namespaces/inkscape"
   xmlns:sodipodi="http://sodipodi.sourceforge.net/DTD/sodipodi-0.dtd"
   xmlns="http://www.w3.org/2000/svg"
   xmlns:svg="http://www.w3.org/2000/svg">
  <defs
     id="defs1" />
  <sodipodi:namedview
     id="namedview1"
     pagecolor="#ffffff"
     bordercolor="#000000"
     borderopacity="0.25"
     inkscape:showpageshadow="2"
     inkscape:pageopacity="0.0"
     inkscape:pagecheckerboard="0"
     inkscape:deskcolor="#d1d1d1">
    <inkscape:page
       x="0"
       y="0"
       inkscape:label="1"
       id="page1"
       width="129.73334"
       height="29.466667"
       margin="0"
       bleed="0" />
  </sodipodi:namedview>
  <g
     id="g1"
     inkscape:groupmode="layer"
     inkscape:label="1">
    <path
       id="path1"
       d="M 31.4219,77 C 24.9063,77 19.5195,78.6953 14.8438,82.0938 9.89453,85.7891 6.56641,90.3008 4.01563,96.5313 1.46875,102.914 0.203125,110.141 0.203125,118.672 v 5.656 c -0.070312,8.742 1.269535,15.895 3.812505,22.125 2.54687,6.41 6.16017,11.039 10.82817,14.438 4.3945,3.429 10.2031,5.093 16.5781,5.093 6.2422,0.004 11.9062,-1.699 16.5625,-5.093 4.3359,-3.36 8.2734,-8.211 10.8281,-14.438 2.2813,-6.047 3.8281,-13.605 3.8281,-22.125 v -5.656 C 62.4258,110.25 61.3633,102.758 58.8125,96.5313 55.9883,90.457 52.6484,85.4883 47.9844,82.0938 43,79 37.8047,77 31.4219,77 Z m 0,12.3125 c 4.8789,0.2266 8.9922,2.2578 11.9219,6.7813 2.8203,4.8202 4.4453,11.0512 4.5312,19.5942 H 14.9688 c -0.25,-8.438 1.5664,-15.075 4.4843,-19.5942 2.7735,-4.2188 6.9141,-6.7813 11.9688,-6.7813 z M 14.9688,128 H 47.875 c -0.375,8.313 -1.5937,14.664 -4.5312,19.063 -3.043,4.718 -6.9024,6.609 -11.9219,6.609 -5.1953,0.109 -9.043,-2.203 -11.9688,-6.609 -3.0703,-4.086 -4.414,-10.75 -4.4843,-19.063"
       style="fill:#000000;fill-opacity:1;fill-rule:nonzero;stroke:none"
       transform="matrix(0.13333333,0,0,-0.13333333,0,29.466667)" />
    <path
       id="path2"
       d="m 74.5313,112.922 c -0.1797,6.785 0.582,13.68 1.75,20.766 1.0703,7.187 2.789,13.781 4.875,20.093 2.0312,6.383 4.4843,11.711 7.2031,16.203 h 14.1876 c -2.7892,-5.578 -4.8907,-11.601 -6.8595,-18.046 -2.1992,-6.43 -3.5,-13.012 -4.5937,-19.688 -1.1172,-6.43 -1.625,-13.121 -1.625,-19.328 -0.1563,-8.297 1.0859,-16.6173 3.2656,-24.8751 C 94.6641,80.1016 98.1797,70.7734 102.547,61 H 88.3594 C 79.0195,76.7109 74.5313,94.0156 74.5313,112.922"
       style="fill:#000000;fill-opacity:1;fill-rule:nonzero;stroke:none"
       transform="matrix(0.13333333,0,0,-0.13333333,0,29.466667)" />
    <path
       id="path3"
       d="m 111.531,78 v 61.984 h 14.188 v -10.265 h 0.172 c 0.836,3.426 2.914,5.875 5.343,7.625 2.36,1.976 5.641,2.64 9.61,2.64 0.726,0.004 1.91,-0.031 2.703,-0.093 0.617,-0.016 1.492,-0.102 2.078,-0.141 v -12.859 c -0.75,0.172 -1.477,0.3 -2.797,0.5 -1.601,0.398 -2.711,0.297 -4.156,0.297 -3.727,0.101 -6.449,-1.215 -8.844,-3.641 -2.664,-2.109 -3.578,-6.07 -3.578,-10.922 V 78 h -14.719"
       style="fill:#000000;fill-opacity:1;fill-rule:nonzero;stroke:none"
       transform="matrix(0.13333333,0,0,-0.13333333,0,29.466667)" />
    <path
       id="path4"
       d="m 150.75,61 c 4.145,9.7734 7.68,18.7852 9.859,27.0469 1.973,8.5781 3.266,16.5511 3.266,24.8751 -0.293,6.234 -0.559,12.648 -1.672,19.328 -1.172,6.926 -2.64,13.238 -4.609,19.688 -2.156,6.468 -4.242,12.46 -6.844,18.046 h 14.234 c 2.391,-4.484 5.11,-9.89 7.172,-16.203 2.008,-6.242 3.676,-13.011 4.844,-20.093 1.176,-6.981 1.766,-14.008 1.766,-20.766 C 178.508,94.0391 174.172,76.7109 164.984,61 H 150.75"
       style="fill:#000000;fill-opacity:1;fill-rule:nonzero;stroke:none"
       transform="matrix(0.13333333,0,0,-0.13333333,0,29.466667)" />
    <path
       id="path5"
       d="m 227.734,121 v 8 h 72.172 v -8 z m 0,-26 v 8 h 72.172 v -8 z"
       style="fill:#000000;fill-opacity:1;fill-rule:nonzero;stroke:none"
       transform="matrix(0.13333333,0,0,-0.13333333,0,29.466667)" />
    <path
       id="path6"
       d="m 358.453,148 v 8.156 l 23.031,20.235 c 3.047,3.086 5.735,5.453 7.579,7.703 1.82,2.562 2.765,4.941 2.765,8.047 -0.277,3.629 -1,5.988 -3,7.937 -2.277,2.266 -4.719,2.938 -8.156,2.938 -3.945,0.328 -6.625,-1.18 -8.719,-3.532 -2.402,-2.183 -3.125,-5.57 -3.125,-9.64 h -10.422 c -0.136,4.457 0.907,8.269 2.719,11.594 1.781,3.519 4.398,5.925 7.734,7.781 3.047,2.113 7.27,2.781 11.813,2.781 3.973,0 7.937,-0.82 11.219,-2.453 2.984,-1.477 5.847,-3.906 7.703,-6.844 1.656,-2.828 2.781,-6.351 2.781,-10.265 -0.125,-4.118 -1.199,-8.141 -3.594,-11.516 -2.656,-3.352 -5.851,-7.031 -10.359,-10.969 l -14.641,-12.969 h 28.907 V 148 h -44.235"
       style="fill:#000000;fill-opacity:1;fill-rule:nonzero;stroke:none"
       transform="matrix(0.13333333,0,0,-0.13333333,0,29.466667)" />
    <path
       id="path7"
       d="m 353.781,112.051 h 53.481"
       style="fill:none;stroke:#000000;stroke-width:7.763;stroke-linecap:butt;stroke-linejoin:miter;stroke-miterlimit:10;stroke-dasharray:none;stroke-opacity:1"
       transform="matrix(0.13333333,0,0,-0.13333333,0,29.466667)" />
    <path
       id="path8"
       d="m 380.906,17 c -5.273,0 -9.211,0.9531 -12.718,2.8594 -3.563,1.9531 -6.184,4.4844 -8.047,7.7344 -1.903,3.3828 -2.782,6.8945 -2.782,10.9375 h 10.938 c -0.102,-3.8125 1.098,-7.0547 3.297,-9.25 2.008,-1.961 5.269,-3.2969 9.187,-3.2969 3.426,0.0039 6.688,0.9297 9,2.7969 2.051,1.9453 3.469,4.3671 3.469,7.4843 -0.086,3.1602 -1.246,5.2657 -3.734,7.0469 C 386.863,45.332 383.77,46 379.719,46 h -5.453 v 8.9844 h 5.453 c 3.414,0.0039 6.578,0.8164 8.765,2.4531 2.024,1.8203 3.282,3.8281 3.282,6.5781 -0.258,3.3672 -1.028,5.461 -3.078,7.2657 C 386.414,73.332 383.969,74 380.656,74 c -3.656,0 -6.179,-1 -8.218,-3 -2.188,-1.9922 -3.063,-4.6953 -3.063,-8.1094 h -10.687 c -0.231,3.9414 0.91,7.3672 2.734,10.3907 1.691,3.2695 4.394,5.4062 7.687,7.125 3.254,1.914 7.149,2.5781 11.579,2.5781 3.945,0.0039 7.894,-0.7735 11.156,-2.3125 2.988,-1.4336 5.847,-3.668 7.734,-6.375 1.692,-2.4766 2.828,-5.8203 2.828,-9.3281 -0.136,-3.4688 -1.093,-6.461 -3.281,-8.9375 -2.23,-2.1563 -5.055,-4.1524 -8.594,-5.0157 v -0.125 c 4.133,-0.5586 7.692,-2.2929 10.141,-5.0937 2.234,-2.7344 3.687,-6.0938 3.687,-9.875 -0.121,-3.6406 -1.011,-6.9297 -3.031,-9.7813 -2.121,-2.5703 -4.777,-5.0937 -8.297,-6.7187 C 389.508,18 385.477,17 380.906,17"
       style="fill:#000000;fill-opacity:1;fill-rule:nonzero;stroke:none"
       transform="matrix(0.13333333,0,0,-0.13333333,0,29.466667)" />
    <path
       id="path9"
       d="M 478.047,139.984 V 127.688 H 465.5 V 96.0625 c -0.168,-1.875 0.445,-3.6953 1.344,-4.5156 0.613,-0.6719 2.531,-1.2344 4.906,-1.2344 h 6.297 V 78 h -8.875 c -6.32,0 -10.902,1.2578 -13.922,3.7813 -3.094,2.6015 -4.516,6.4375 -4.516,11.7187 v 34.188 H 440 v 12.296 h 10.734 v 16.5 H 465.5 v -16.5 h 12.547"
       style="fill:#000000;fill-opacity:1;fill-rule:nonzero;stroke:none"
       transform="matrix(0.13333333,0,0,-0.13333333,0,29.466667)" />
    <path
       id="path10"
       d="m 506.328,77 c -6.258,0 -11.234,1.5625 -15.265,4.6875 -4.043,3.2383 -6.032,7.8047 -6.032,14.0156 -0.011,4.8279 1.133,8.3789 3.407,10.9529 2.132,2.688 5.257,4.446 8.937,5.625 3.551,1.426 7.633,2 11.875,2.438 5.633,0.758 9.703,1.254 11.953,1.765 2.192,0.68 3.391,1.829 3.391,3.954 v 0.468 c -0.199,2.707 -1,4.86 -3,6.547 -2.199,1.867 -4.758,2.531 -8.266,2.531 -3.683,0.004 -6.48,-0.851 -8.719,-2.546 -2.445,-1.5 -3.461,-3.856 -3.656,-6.5 h -14.172 c 0.082,6.031 2.891,10.851 7.641,14.531 4.609,3.851 11.148,5.515 19.203,5.515 7.813,0.004 14.281,-1.875 18.781,-5.625 4.375,-3.527 6.766,-8.824 6.766,-15.25 V 78 h -14.453 v 8.7031 h -0.235 c -1.64,-2.6328 -3.621,-5.0312 -6.421,-6.9062 C 515.238,78 511.348,77 506.328,77 Z m 3.625,11 c 4.504,0 8.477,1.2539 10.969,3.7656 2.18,2.586 3.734,5.5508 3.734,9.1254 v 6.656 c -1.117,-0.434 -2.633,-1.121 -5.203,-1.609 -2.715,-0.461 -5.359,-0.954 -8.39,-1.422 -3.18,-0.309 -5.891,-1.356 -8.204,-2.657 -2.601,-1.257 -3.468,-3.3551 -3.468,-6.1559 -0.133,-2.3203 0.953,-4.3086 2.859,-5.6718 C 504.07,89 506.723,88 509.953,88"
       style="fill:#000000;fill-opacity:1;fill-rule:nonzero;stroke:none"
       transform="matrix(0.13333333,0,0,-0.13333333,0,29.466667)" />
    <path
       id="path11"
       d="M 567.25,113.344 V 78 h -14.719 v 61.984 h 14.485 v -9.203 c 4.273,6.875 10.582,10.203 18.906,10.203 6.148,0.004 11.734,-2.086 15.828,-6.25 3.852,-4.078 6.156,-10.211 6.156,-18.125 V 78 h -14.75 v 36.719 c -0.054,4.664 -1.09,8.039 -3.265,10.406 -2.477,2.664 -5.231,3.563 -9.157,3.563 -4.101,0.101 -7.07,-1.227 -9.64,-3.672 -2.594,-2.121 -3.844,-6.34 -3.844,-11.672"
       style="fill:#000000;fill-opacity:1;fill-rule:nonzero;stroke:none"
       transform="matrix(0.13333333,0,0,-0.13333333,0,29.466667)" />
    <path
       id="path12"
       d="m 621.172,158 h 48.9375 v 7 H 621.172 Z"
       style="fill:#000000;fill-opacity:1;fill-rule:nonzero;stroke:none"
       transform="matrix(0.13333333,0,0,-0.13333333,0,29.466667)" />
    <path
       id="path13"
       d="m 705.922,200 v -63 h -10.844 v 51.984 h -0.094 l -15.203,-9.703 v 10.157 L 695.547,200 h 10.375"
       style="fill:#000000;fill-opacity:1;fill-rule:nonzero;stroke:none"
       transform="matrix(0.13333333,0,0,-0.13333333,0,29.466667)" />
    <path
       id="path14"
       d="m 743.531,112.922 c -0.179,6.785 0.582,13.68 1.75,20.766 1.071,7.187 2.789,13.781 4.875,20.093 2.032,6.383 4.485,11.711 7.203,16.203 h 14.188 c -2.789,-5.578 -4.891,-11.601 -6.859,-18.046 -2.2,-6.43 -3.5,-13.012 -4.594,-19.688 -1.117,-6.43 -1.625,-13.121 -1.625,-19.328 -0.156,-8.297 1.086,-16.6173 3.265,-24.8751 1.93,-7.9453 5.446,-17.2735 9.813,-27.0469 h -14.188 c -9.339,15.7109 -13.828,33.0156 -13.828,51.922"
       style="fill:#000000;fill-opacity:1;fill-rule:nonzero;stroke:none"
       transform="matrix(0.13333333,0,0,-0.13333333,0,29.466667)" />
    <path
       id="path15"
       d="m 791.281,158 v 63 h 24.735 c 4.648,0 8.675,-0.82 12.062,-2.453 3.367,-1.484 6.016,-3.961 7.86,-6.969 1.531,-2.871 2.765,-6.574 2.765,-10.687 -0.234,-4.246 -1.07,-7.961 -3.203,-11.032 -2.293,-3.027 -5.074,-5.371 -8.844,-6.89 L 839.891,158 H 827.5 l -11.906,23.016 c -0.293,0.328 -0.196,0 -0.297,0 H 802.516 V 158 Z m 11.235,32 h 12.937 c 3.598,0 6.719,0.988 8.906,2.969 2.067,2 3.282,4.679 3.282,8.078 -0.215,3.68 -1.106,6.031 -3.313,8 -2.308,2.297 -5.183,2.969 -8.953,2.969 H 802.516 V 190"
       style="fill:#000000;fill-opacity:1;fill-rule:nonzero;stroke:none"
       transform="matrix(0.13333333,0,0,-0.13333333,0,29.466667)" />
    <path
       id="path16"
       d="m 865.422,175 v -7.422 h -7.516 v -18.75 c -0.304,-1.234 0.266,-2.183 0.797,-2.672 0.305,-0.211 1.52,-0.734 2.938,-0.734 h 3.781 V 138 h -5.313 c -3.796,0 -6.546,0.75 -8.359,2.25 -2.062,1.75 -2.719,3.82 -2.719,6.969 v 20.359 h -6.437 V 175 h 6.437 v 10.5 h 8.875 V 175 h 7.516"
       style="fill:#000000;fill-opacity:1;fill-rule:nonzero;stroke:none"
       transform="matrix(0.13333333,0,0,-0.13333333,0,29.466667)" />
    <path
       id="path17"
       d="m 870.922,138 v 37 h 8.828 v -37 z m 4.875,43 c -1.789,0 -2.789,0.477 -3.797,1.438 -1,1.156 -1.5,2.16 -1.5,3.578 -0.168,1.742 0.5,2.597 1.5,3.547 1.008,1.101 2.273,1.437 3.797,1.437 1.223,0 2.734,-0.48 3.734,-1.437 0.832,-0.805 1.516,-2.133 1.516,-3.547 -0.016,-1.09 -0.508,-2.61 -1.516,-3.578 -1.179,-0.774 -2.246,-1.438 -3.734,-1.438"
       style="fill:#000000;fill-opacity:1;fill-rule:nonzero;stroke:none"
       transform="matrix(0.13333333,0,0,-0.13333333,0,29.466667)" />
    <path
       id="path18"
       d="m 887.922,123 v 52 h 8.687 v -5.016 h 0.11 c 0.926,2.016 2.726,3.516 4.687,4.516 1.821,1.164 4.129,1.5 6.516,1.5 2.867,0 5.957,-0.824 8.344,-2.469 2.304,-1.492 4.265,-3.933 5.609,-6.859 1.051,-2.809 2.016,-6.297 2.016,-10.141 -0.297,-3.75 -0.664,-7.324 -1.985,-10.25 -1.625,-2.679 -3.187,-5.195 -5.593,-6.828 -2.5,-1.453 -5.204,-2.453 -8.422,-2.453 -2.735,0 -4.594,0.527 -6.469,1.578 -2.016,1.192 -3.399,2.625 -4.563,4.719 H 896.75 V 123 Z m 17.891,21.422 c 2.457,0.191 4.929,1.035 6.609,3.109 1.547,2.239 2.531,5.071 2.531,8.969 -0.32,4.039 -0.844,6.852 -2.531,8.938 -1.82,2.281 -3.883,3.14 -6.609,3.14 -3.168,0.141 -5.215,-1.101 -6.954,-3.297 -2.027,-1.961 -2.609,-5.125 -2.609,-8.781 -0.086,-3.492 0.867,-6.586 2.609,-8.781 1.454,-2.106 4.055,-3.297 6.954,-3.297"
       style="fill:#000000;fill-opacity:1;fill-rule:nonzero;stroke:none"
       transform="matrix(0.13333333,0,0,-0.13333333,0,29.466667)" />
    <path
       id="path19"
       d="M 785.988,112.051 H 931.031"
       style="fill:none;stroke:#000000;stroke-width:7.763;stroke-linecap:butt;stroke-linejoin:miter;stroke-miterlimit:10;stroke-dasharray:none;stroke-opacity:1"
       transform="matrix(0.13333333,0,0,-0.13333333,0,29.466667)" />
    <path
       id="path20"
       d="M 802.766,17 820.172,61.9531 818.266,67 c -0.778,1.7695 -1.477,3.0469 -2.36,3.8281 -1.179,0.8477 -2.023,1.1875 -3.437,1.1875 h -5.016 V 81 h 6.985 c 6.289,0 10.972,-3.4844 13.609,-10.4531 L 843.047,31 c 0.66,-1.7734 1.41,-3.0547 2.203,-3.8437 0.707,-0.5 1.91,-1.1719 3.359,-1.1719 h 3.704 V 17 h -5.407 c -6.742,0 -10.867,3.4883 -13.281,10.4688 l -4.766,13.125 c -0.851,1.789 -1.117,3.3164 -1.656,4.9843 -0.609,1.8164 -1.07,3.3594 -1.578,5.0469 -0.719,-1.5625 -1.039,-3.3594 -1.578,-5.0156 -0.547,-1.5274 -1.086,-3.3281 -1.656,-5.0156 L 814.141,17 h -11.375"
       style="fill:#000000;fill-opacity:1;fill-rule:nonzero;stroke:none"
       transform="matrix(0.13333333,0,0,-0.13333333,0,29.466667)" />
    <path
       id="path21"
       d="m 856.922,0 v 37 h 8.516 v -6.1875 h 0.093 c 0.5,2.0703 1.742,3.5391 3.203,4.5938 1.223,1.2578 3.391,1.5937 5.766,1.5937 0.438,0 1.145,-0.0234 1.625,-0.0625 0.438,-0.0117 0.895,-0.0586 1.25,-0.0781 v -7.8438 c -0.449,0.4219 -0.887,0.2071 -1.687,0.3438 -1.024,0.3594 -1.622,0.2187 -2.485,0.2187 -2.172,0.1407 -3.875,-0.7265 -5.312,-2.1718 -1.727,-1.2422 -2.141,-3.6055 -2.141,-6.5 L 865.75,0 h -8.828"
       style="fill:#000000;fill-opacity:1;fill-rule:nonzero;stroke:none"
       transform="matrix(0.13333333,0,0,-0.13333333,0,29.466667)" />
    <path
       id="path22"
       d="m 888.766,18 v 45 h 10.343 v -7.5 h 0.125 c 0.743,2.6016 2.118,4.2969 3.891,5.5781 1.738,1.586 4.117,1.9219 7.016,1.9219 0.691,0 1.394,-0.0234 1.968,-0.0625 0.547,-0.0234 1.086,-0.0742 1.516,-0.0937 v -9.1719 c -0.605,0.1719 -1.078,0.1328 -2.047,0.2187 -1.152,0.1172 -1.965,0.125 -3.015,0.125 -2.743,0.3282 -4.704,-0.8828 -6.454,-2.6406 -1.777,-1.5547 -2.609,-4.4023 -2.609,-7.9219 L 899.5,18 h -10.734"
       style="fill:#000000;fill-opacity:1;fill-rule:nonzero;stroke:none"
       transform="matrix(0.13333333,0,0,-0.13333333,0,29.466667)" />
    <path
       id="path23"
       d="m 945.75,61 c 4.145,9.7734 7.68,18.7852 9.859,27.0469 1.973,8.5781 3.266,16.5511 3.266,24.8751 -0.293,6.234 -0.559,12.648 -1.672,19.328 -1.172,6.926 -2.64,13.238 -4.609,19.688 -2.156,6.468 -4.242,12.46 -6.844,18.046 h 14.234 c 2.391,-4.484 5.11,-9.89 7.172,-16.203 2.008,-6.242 3.676,-13.011 4.844,-20.093 1.176,-6.981 1.766,-14.008 1.766,-20.766 C 973.508,94.0391 969.172,76.7109 959.984,61 H 945.75"
       style="fill:#000000;fill-opacity:1;fill-rule:nonzero;stroke:none"
       transform="matrix(0.13333333,0,0,-0.13333333,0,29.466667)" />
  </g>
</svg>
